<?xml version="1.0" encoding="utf-8"?>
<!-- Generator: Adobe Illustrator 16.0.4, SVG Export Plug-In . SVG Version: 6.00 Build 0)  -->
<!DOCTYPE svg PUBLIC "-//W3C//DTD SVG 1.1//EN" "http://www.w3.org/Graphics/SVG/1.1/DTD/svg11.dtd">
<svg version="1.1" id="Layer_1" xmlns="http://www.w3.org/2000/svg" xmlns:xlink="http://www.w3.org/1999/xlink" x="0px" y="0px"
	 width="141px" height="96px" viewBox="0 0 141 96" enable-background="new 0 0 141 96" xml:space="preserve">
<path fill="#0255A3" d="M141,85.999c0,5.523-4.478,10-10,10H10c-5.522,0-10-4.477-10-10V10C0,4.477,4.478,0,10,0h121
	c5.522,0,10,4.477,10,10V85.999z"/>
<polygon fill="#FFFFFF" points="62.568,66.255 52.836,66.255 58.919,28.869 68.652,28.869 "/>
<path fill="#FFFFFF" d="M44.647,28.869l-9.279,25.714l-1.098-5.537l0.001,0.002l-3.275-16.812c0,0-0.396-3.367-4.617-3.367H11.04
	l-0.18,0.633c0,0,4.692,0.976,10.181,4.274l8.456,32.479h10.141l15.485-37.386H44.647z"/>
<path fill="#FFFFFF" d="M121.203,66.255h8.937l-7.792-37.386h-7.825c-3.613,0-4.493,2.786-4.493,2.786l-14.515,34.6h10.145
	l2.029-5.553h12.373L121.203,66.255z M110.493,53.03l5.114-13.991l2.877,13.991H110.493z"/>
<path fill="#FFFFFF" d="M96.275,37.859l1.389-8.029c0,0-4.286-1.63-8.754-1.63c-4.83,0-16.3,2.112-16.3,12.376
	c0,9.659,13.462,9.78,13.462,14.851c0,5.072-12.074,4.166-16.059,0.967l-1.448,8.393c0,0,4.346,2.111,10.987,2.111
	c6.641,0,16.662-3.439,16.662-12.799c0-9.72-13.583-10.625-13.583-14.851C82.632,35.021,92.11,35.564,96.275,37.859z"/>
<path fill="#FAA634" d="M34.271,49.048l-3.275-16.812c0,0-0.396-3.367-4.617-3.367H11.04l-0.18,0.633c0,0,7.373,1.528,14.446,7.253
	C32.066,42.227,34.271,49.048,34.271,49.048z"/>
</svg>
